<mxfile host="Electron" modified="2024-03-16T12:54:50.840Z" agent="Mozilla/5.0 (Windows NT 10.0; Win64; x64) AppleWebKit/537.36 (KHTML, like Gecko) draw.io/24.0.4 Chrome/120.0.6099.109 Electron/28.1.0 Safari/537.36" etag="WCy0M6XjjvjVqItlM4zy" version="24.0.4" type="device">
  <diagram name="第 1 页" id="mylq63slfxLQx6wNypkX">
    <mxGraphModel dx="1562" dy="2078" grid="1" gridSize="10" guides="1" tooltips="1" connect="1" arrows="1" fold="1" page="1" pageScale="1" pageWidth="827" pageHeight="1169" math="0" shadow="0">
      <root>
        <mxCell id="0" />
        <mxCell id="1" parent="0" />
        <mxCell id="DjwsQ6T4ATZzyBEK2xcY-18" value="Any" style="text;html=1;align=center;verticalAlign=middle;resizable=0;points=[];autosize=1;strokeColor=none;fillColor=none;rotation=0;" parent="1" vertex="1">
          <mxGeometry x="230" y="340" width="40" height="30" as="geometry" />
        </mxCell>
        <mxCell id="DjwsQ6T4ATZzyBEK2xcY-17" value="Any" style="text;html=1;align=center;verticalAlign=middle;resizable=0;points=[];autosize=1;strokeColor=none;fillColor=none;rotation=0;" parent="1" vertex="1">
          <mxGeometry x="450" y="340" width="40" height="30" as="geometry" />
        </mxCell>
        <mxCell id="DjwsQ6T4ATZzyBEK2xcY-1" value="&lt;b&gt;while&lt;/b&gt;" style="rounded=1;whiteSpace=wrap;html=1;fillColor=#ffe6cc;strokeColor=#d79b00;" parent="1" vertex="1">
          <mxGeometry x="300" y="310" width="120" height="60" as="geometry" />
        </mxCell>
        <mxCell id="DjwsQ6T4ATZzyBEK2xcY-4" value="" style="edgeStyle=none;orthogonalLoop=1;jettySize=auto;html=1;rounded=0;" parent="1" edge="1">
          <mxGeometry width="100" relative="1" as="geometry">
            <mxPoint x="240" y="320" as="sourcePoint" />
            <mxPoint x="300" y="320" as="targetPoint" />
            <Array as="points" />
          </mxGeometry>
        </mxCell>
        <mxCell id="DjwsQ6T4ATZzyBEK2xcY-5" value="" style="edgeStyle=none;orthogonalLoop=1;jettySize=auto;html=1;rounded=0;" parent="1" edge="1">
          <mxGeometry width="100" relative="1" as="geometry">
            <mxPoint x="240" y="360" as="sourcePoint" />
            <mxPoint x="300" y="360" as="targetPoint" />
            <Array as="points" />
          </mxGeometry>
        </mxCell>
        <mxCell id="DjwsQ6T4ATZzyBEK2xcY-6" value="" style="edgeStyle=none;orthogonalLoop=1;jettySize=auto;html=1;rounded=0;entryX=0.5;entryY=0;entryDx=0;entryDy=0;" parent="1" target="DjwsQ6T4ATZzyBEK2xcY-1" edge="1">
          <mxGeometry width="100" relative="1" as="geometry">
            <mxPoint x="360" y="260" as="sourcePoint" />
            <mxPoint x="460" y="260" as="targetPoint" />
            <Array as="points" />
          </mxGeometry>
        </mxCell>
        <mxCell id="DjwsQ6T4ATZzyBEK2xcY-7" value="" style="edgeStyle=none;orthogonalLoop=1;jettySize=auto;html=1;rounded=0;" parent="1" edge="1">
          <mxGeometry width="100" relative="1" as="geometry">
            <mxPoint x="420" y="319.71" as="sourcePoint" />
            <mxPoint x="480" y="320" as="targetPoint" />
            <Array as="points" />
          </mxGeometry>
        </mxCell>
        <mxCell id="DjwsQ6T4ATZzyBEK2xcY-8" value="" style="edgeStyle=none;orthogonalLoop=1;jettySize=auto;html=1;rounded=0;" parent="1" edge="1">
          <mxGeometry width="100" relative="1" as="geometry">
            <mxPoint x="420" y="359.71" as="sourcePoint" />
            <mxPoint x="480" y="360" as="targetPoint" />
            <Array as="points" />
          </mxGeometry>
        </mxCell>
        <mxCell id="DjwsQ6T4ATZzyBEK2xcY-9" value="" style="edgeStyle=none;orthogonalLoop=1;jettySize=auto;html=1;rounded=0;" parent="1" edge="1">
          <mxGeometry width="100" relative="1" as="geometry">
            <mxPoint x="420" y="339.71" as="sourcePoint" />
            <mxPoint x="480" y="340" as="targetPoint" />
            <Array as="points" />
          </mxGeometry>
        </mxCell>
        <mxCell id="DjwsQ6T4ATZzyBEK2xcY-12" value="" style="curved=1;endArrow=classic;html=1;rounded=0;" parent="1" edge="1">
          <mxGeometry width="50" height="50" relative="1" as="geometry">
            <mxPoint x="480" y="340" as="sourcePoint" />
            <mxPoint x="360" y="260" as="targetPoint" />
            <Array as="points">
              <mxPoint x="570" y="340" />
              <mxPoint x="580" y="220" />
              <mxPoint x="360" y="220" />
            </Array>
          </mxGeometry>
        </mxCell>
        <mxCell id="DjwsQ6T4ATZzyBEK2xcY-14" value="if condition judge" style="rounded=0;whiteSpace=wrap;html=1;fillColor=#dae8fc;strokeColor=#6c8ebf;" parent="1" vertex="1">
          <mxGeometry x="414" y="200" width="120" height="40" as="geometry" />
        </mxCell>
        <mxCell id="DjwsQ6T4ATZzyBEK2xcY-15" value="Any" style="text;html=1;align=center;verticalAlign=middle;resizable=0;points=[];autosize=1;strokeColor=none;fillColor=none;" parent="1" vertex="1">
          <mxGeometry x="450" y="298" width="40" height="30" as="geometry" />
        </mxCell>
        <mxCell id="DjwsQ6T4ATZzyBEK2xcY-16" value="Any" style="text;html=1;align=center;verticalAlign=middle;resizable=0;points=[];autosize=1;strokeColor=none;fillColor=none;" parent="1" vertex="1">
          <mxGeometry x="450" y="320" width="40" height="30" as="geometry" />
        </mxCell>
        <mxCell id="DjwsQ6T4ATZzyBEK2xcY-19" value="Any" style="text;html=1;align=center;verticalAlign=middle;resizable=0;points=[];autosize=1;strokeColor=none;fillColor=none;" parent="1" vertex="1">
          <mxGeometry x="225" y="298" width="40" height="30" as="geometry" />
        </mxCell>
        <mxCell id="DjwsQ6T4ATZzyBEK2xcY-21" value="" style="curved=1;endArrow=classic;html=1;rounded=0;" parent="1" edge="1">
          <mxGeometry width="50" height="50" relative="1" as="geometry">
            <mxPoint x="480" y="360" as="sourcePoint" />
            <mxPoint x="240" y="360" as="targetPoint" />
            <Array as="points">
              <mxPoint x="570" y="360" />
              <mxPoint x="570" y="440" />
              <mxPoint x="180" y="460" />
              <mxPoint x="110" y="360" />
            </Array>
          </mxGeometry>
        </mxCell>
        <mxCell id="DjwsQ6T4ATZzyBEK2xcY-23" value="loop calculation body" style="rounded=0;whiteSpace=wrap;html=1;fillColor=#dae8fc;strokeColor=#6c8ebf;" parent="1" vertex="1">
          <mxGeometry x="270" y="430" width="120" height="40" as="geometry" />
        </mxCell>
        <mxCell id="DjwsQ6T4ATZzyBEK2xcY-25" value="&lt;b&gt;RF&lt;/b&gt;" style="whiteSpace=wrap;html=1;aspect=fixed;fillColor=#fff2cc;strokeColor=#d6b656;" parent="1" vertex="1">
          <mxGeometry x="320" y="-120" width="80" height="80" as="geometry" />
        </mxCell>
        <mxCell id="DjwsQ6T4ATZzyBEK2xcY-26" value="" style="edgeStyle=none;orthogonalLoop=1;jettySize=auto;html=1;rounded=0;" parent="1" edge="1">
          <mxGeometry width="100" relative="1" as="geometry">
            <mxPoint x="260" y="-78" as="sourcePoint" />
            <mxPoint x="320" y="-78" as="targetPoint" />
            <Array as="points" />
          </mxGeometry>
        </mxCell>
        <mxCell id="DjwsQ6T4ATZzyBEK2xcY-27" value="Any" style="text;html=1;align=center;verticalAlign=middle;resizable=0;points=[];autosize=1;strokeColor=none;fillColor=none;" parent="1" vertex="1">
          <mxGeometry x="245" y="-100" width="40" height="30" as="geometry" />
        </mxCell>
        <mxCell id="DjwsQ6T4ATZzyBEK2xcY-29" value="" style="edgeStyle=none;orthogonalLoop=1;jettySize=auto;html=1;rounded=0;" parent="1" edge="1">
          <mxGeometry width="100" relative="1" as="geometry">
            <mxPoint x="400" y="-78.29000000000002" as="sourcePoint" />
            <mxPoint x="460" y="-78" as="targetPoint" />
            <Array as="points" />
          </mxGeometry>
        </mxCell>
        <mxCell id="DjwsQ6T4ATZzyBEK2xcY-30" value="Any" style="text;html=1;align=center;verticalAlign=middle;resizable=0;points=[];autosize=1;strokeColor=none;fillColor=none;" parent="1" vertex="1">
          <mxGeometry x="430" y="-100" width="40" height="30" as="geometry" />
        </mxCell>
        <mxCell id="DjwsQ6T4ATZzyBEK2xcY-31" value="" style="endArrow=classic;html=1;rounded=0;entryX=0.5;entryY=0;entryDx=0;entryDy=0;dashed=1;dashPattern=8 8;" parent="1" target="DjwsQ6T4ATZzyBEK2xcY-25" edge="1">
          <mxGeometry width="50" height="50" relative="1" as="geometry">
            <mxPoint x="320" y="-80" as="sourcePoint" />
            <mxPoint x="370" y="-130" as="targetPoint" />
          </mxGeometry>
        </mxCell>
        <mxCell id="DjwsQ6T4ATZzyBEK2xcY-32" value="" style="endArrow=classic;html=1;rounded=0;entryX=0.5;entryY=0;entryDx=0;entryDy=0;dashed=1;dashPattern=8 8;" parent="1" edge="1">
          <mxGeometry width="50" height="50" relative="1" as="geometry">
            <mxPoint x="360" y="-40" as="sourcePoint" />
            <mxPoint x="400" y="-80" as="targetPoint" />
          </mxGeometry>
        </mxCell>
        <mxCell id="DjwsQ6T4ATZzyBEK2xcY-34" value="" style="shape=or;whiteSpace=wrap;html=1;rotation=-90;" parent="1" vertex="1">
          <mxGeometry x="340" y="-180" width="40" height="40" as="geometry" />
        </mxCell>
        <mxCell id="DjwsQ6T4ATZzyBEK2xcY-35" value="" style="shape=or;whiteSpace=wrap;html=1;rotation=90;" parent="1" vertex="1">
          <mxGeometry x="340" y="-20" width="40" height="40" as="geometry" />
        </mxCell>
        <mxCell id="DjwsQ6T4ATZzyBEK2xcY-36" value="" style="endArrow=none;html=1;rounded=0;entryX=0;entryY=0.5;entryDx=0;entryDy=0;entryPerimeter=0;" parent="1" target="DjwsQ6T4ATZzyBEK2xcY-34" edge="1">
          <mxGeometry width="50" height="50" relative="1" as="geometry">
            <mxPoint x="360" y="-120" as="sourcePoint" />
            <mxPoint x="450" y="-110" as="targetPoint" />
          </mxGeometry>
        </mxCell>
        <mxCell id="DjwsQ6T4ATZzyBEK2xcY-37" value="" style="endArrow=none;html=1;rounded=0;exitX=0;exitY=0.5;exitDx=0;exitDy=0;exitPerimeter=0;entryX=0.5;entryY=1;entryDx=0;entryDy=0;" parent="1" source="DjwsQ6T4ATZzyBEK2xcY-35" target="DjwsQ6T4ATZzyBEK2xcY-25" edge="1">
          <mxGeometry width="50" height="50" relative="1" as="geometry">
            <mxPoint x="400" y="-60" as="sourcePoint" />
            <mxPoint x="450" y="-110" as="targetPoint" />
          </mxGeometry>
        </mxCell>
        <mxCell id="DjwsQ6T4ATZzyBEK2xcY-38" value="send&amp;nbsp;antenna" style="text;html=1;align=center;verticalAlign=middle;resizable=0;points=[];autosize=1;strokeColor=none;fillColor=none;" parent="1" vertex="1">
          <mxGeometry x="380" y="-175" width="100" height="30" as="geometry" />
        </mxCell>
        <mxCell id="DjwsQ6T4ATZzyBEK2xcY-39" value="receive antenna" style="text;html=1;align=center;verticalAlign=middle;resizable=0;points=[];autosize=1;strokeColor=none;fillColor=none;" parent="1" vertex="1">
          <mxGeometry x="375" y="-20" width="110" height="30" as="geometry" />
        </mxCell>
        <mxCell id="DjwsQ6T4ATZzyBEK2xcY-40" value="" style="triangle;whiteSpace=wrap;html=1;fillColor=#e1d5e7;strokeColor=#9673a6;" parent="1" vertex="1">
          <mxGeometry x="360" y="60" width="60" height="80" as="geometry" />
        </mxCell>
        <mxCell id="DjwsQ6T4ATZzyBEK2xcY-41" value="" style="edgeStyle=none;orthogonalLoop=1;jettySize=auto;html=1;rounded=0;" parent="1" edge="1">
          <mxGeometry width="100" relative="1" as="geometry">
            <mxPoint x="300" y="72" as="sourcePoint" />
            <mxPoint x="360" y="72" as="targetPoint" />
            <Array as="points" />
          </mxGeometry>
        </mxCell>
        <mxCell id="DjwsQ6T4ATZzyBEK2xcY-42" value="Any" style="text;html=1;align=center;verticalAlign=middle;resizable=0;points=[];autosize=1;strokeColor=none;fillColor=none;" parent="1" vertex="1">
          <mxGeometry x="285" y="50" width="40" height="30" as="geometry" />
        </mxCell>
        <mxCell id="DjwsQ6T4ATZzyBEK2xcY-43" value="" style="edgeStyle=none;orthogonalLoop=1;jettySize=auto;html=1;rounded=0;" parent="1" edge="1">
          <mxGeometry width="100" relative="1" as="geometry">
            <mxPoint x="300" y="92" as="sourcePoint" />
            <mxPoint x="360" y="92" as="targetPoint" />
            <Array as="points" />
          </mxGeometry>
        </mxCell>
        <mxCell id="DjwsQ6T4ATZzyBEK2xcY-44" value="Any" style="text;html=1;align=center;verticalAlign=middle;resizable=0;points=[];autosize=1;strokeColor=none;fillColor=none;" parent="1" vertex="1">
          <mxGeometry x="285" y="70" width="40" height="30" as="geometry" />
        </mxCell>
        <mxCell id="DjwsQ6T4ATZzyBEK2xcY-45" value="" style="edgeStyle=none;orthogonalLoop=1;jettySize=auto;html=1;rounded=0;" parent="1" edge="1">
          <mxGeometry width="100" relative="1" as="geometry">
            <mxPoint x="300" y="112" as="sourcePoint" />
            <mxPoint x="360" y="112" as="targetPoint" />
            <Array as="points" />
          </mxGeometry>
        </mxCell>
        <mxCell id="DjwsQ6T4ATZzyBEK2xcY-46" value="Any" style="text;html=1;align=center;verticalAlign=middle;resizable=0;points=[];autosize=1;strokeColor=none;fillColor=none;" parent="1" vertex="1">
          <mxGeometry x="285" y="90" width="40" height="30" as="geometry" />
        </mxCell>
        <mxCell id="DjwsQ6T4ATZzyBEK2xcY-47" value="" style="edgeStyle=none;orthogonalLoop=1;jettySize=auto;html=1;rounded=0;" parent="1" edge="1">
          <mxGeometry width="100" relative="1" as="geometry">
            <mxPoint x="300" y="132" as="sourcePoint" />
            <mxPoint x="360" y="132" as="targetPoint" />
            <Array as="points" />
          </mxGeometry>
        </mxCell>
        <mxCell id="DjwsQ6T4ATZzyBEK2xcY-48" value="Any" style="text;html=1;align=center;verticalAlign=middle;resizable=0;points=[];autosize=1;strokeColor=none;fillColor=none;" parent="1" vertex="1">
          <mxGeometry x="285" y="110" width="40" height="30" as="geometry" />
        </mxCell>
        <mxCell id="DjwsQ6T4ATZzyBEK2xcY-49" value="" style="endArrow=classic;html=1;rounded=0;exitX=0.009;exitY=0.146;exitDx=0;exitDy=0;exitPerimeter=0;entryX=1;entryY=0.5;entryDx=0;entryDy=0;" parent="1" source="DjwsQ6T4ATZzyBEK2xcY-40" target="DjwsQ6T4ATZzyBEK2xcY-40" edge="1">
          <mxGeometry width="50" height="50" relative="1" as="geometry">
            <mxPoint x="350" y="120" as="sourcePoint" />
            <mxPoint x="400" y="70" as="targetPoint" />
          </mxGeometry>
        </mxCell>
        <mxCell id="DjwsQ6T4ATZzyBEK2xcY-50" value="" style="endArrow=classic;html=1;rounded=0;exitX=0.009;exitY=0.412;exitDx=0;exitDy=0;exitPerimeter=0;" parent="1" source="DjwsQ6T4ATZzyBEK2xcY-40" edge="1">
          <mxGeometry width="50" height="50" relative="1" as="geometry">
            <mxPoint x="371" y="82" as="sourcePoint" />
            <mxPoint x="420" y="100" as="targetPoint" />
          </mxGeometry>
        </mxCell>
        <mxCell id="DjwsQ6T4ATZzyBEK2xcY-51" value="" style="endArrow=classic;html=1;rounded=0;exitX=-0.005;exitY=0.657;exitDx=0;exitDy=0;exitPerimeter=0;entryX=1;entryY=0.5;entryDx=0;entryDy=0;" parent="1" source="DjwsQ6T4ATZzyBEK2xcY-40" target="DjwsQ6T4ATZzyBEK2xcY-40" edge="1">
          <mxGeometry width="50" height="50" relative="1" as="geometry">
            <mxPoint x="381" y="92" as="sourcePoint" />
            <mxPoint x="440" y="120" as="targetPoint" />
          </mxGeometry>
        </mxCell>
        <mxCell id="DjwsQ6T4ATZzyBEK2xcY-52" value="" style="endArrow=classic;html=1;rounded=0;exitX=0.017;exitY=0.912;exitDx=0;exitDy=0;exitPerimeter=0;entryX=1;entryY=0.5;entryDx=0;entryDy=0;" parent="1" source="DjwsQ6T4ATZzyBEK2xcY-40" target="DjwsQ6T4ATZzyBEK2xcY-40" edge="1">
          <mxGeometry width="50" height="50" relative="1" as="geometry">
            <mxPoint x="391" y="102" as="sourcePoint" />
            <mxPoint x="450" y="130" as="targetPoint" />
          </mxGeometry>
        </mxCell>
        <mxCell id="DjwsQ6T4ATZzyBEK2xcY-53" value="" style="edgeStyle=none;orthogonalLoop=1;jettySize=auto;html=1;rounded=0;" parent="1" edge="1">
          <mxGeometry width="100" relative="1" as="geometry">
            <mxPoint x="420" y="99.99999999999999" as="sourcePoint" />
            <mxPoint x="480" y="100.29" as="targetPoint" />
            <Array as="points" />
          </mxGeometry>
        </mxCell>
        <mxCell id="DjwsQ6T4ATZzyBEK2xcY-54" value="Package" style="text;html=1;align=center;verticalAlign=middle;resizable=0;points=[];autosize=1;strokeColor=none;fillColor=none;" parent="1" vertex="1">
          <mxGeometry x="435" y="70" width="70" height="30" as="geometry" />
        </mxCell>
        <mxCell id="DjwsQ6T4ATZzyBEK2xcY-56" value="Bool" style="text;html=1;align=center;verticalAlign=middle;resizable=0;points=[];autosize=1;strokeColor=none;fillColor=none;" parent="1" vertex="1">
          <mxGeometry x="305" y="250" width="50" height="30" as="geometry" />
        </mxCell>
        <mxCell id="DjwsQ6T4ATZzyBEK2xcY-57" value="" style="endArrow=classic;dashed=1;html=1;rounded=0;exitX=0.001;exitY=0.168;exitDx=0;exitDy=0;exitPerimeter=0;entryX=1;entryY=0.5;entryDx=0;entryDy=0;endFill=0;fillColor=#fff2cc;strokeColor=#d6b656;" parent="1" source="DjwsQ6T4ATZzyBEK2xcY-1" target="DjwsQ6T4ATZzyBEK2xcY-1" edge="1">
          <mxGeometry width="50" height="50" relative="1" as="geometry">
            <mxPoint x="350" y="390" as="sourcePoint" />
            <mxPoint x="400" y="340" as="targetPoint" />
          </mxGeometry>
        </mxCell>
        <mxCell id="DjwsQ6T4ATZzyBEK2xcY-58" value="" style="endArrow=classic;dashed=1;html=1;rounded=0;exitX=0;exitY=0.167;exitDx=0;exitDy=0;exitPerimeter=0;entryX=1.008;entryY=0.814;entryDx=0;entryDy=0;entryPerimeter=0;endFill=0;fillColor=#fff2cc;strokeColor=#d6b656;" parent="1" source="DjwsQ6T4ATZzyBEK2xcY-1" target="DjwsQ6T4ATZzyBEK2xcY-1" edge="1">
          <mxGeometry width="50" height="50" relative="1" as="geometry">
            <mxPoint x="310" y="330" as="sourcePoint" />
            <mxPoint x="430" y="350" as="targetPoint" />
          </mxGeometry>
        </mxCell>
        <mxCell id="DjwsQ6T4ATZzyBEK2xcY-59" value="" style="endArrow=classic;dashed=1;html=1;rounded=0;exitX=0.008;exitY=0.849;exitDx=0;exitDy=0;exitPerimeter=0;entryX=1.004;entryY=0.154;entryDx=0;entryDy=0;entryPerimeter=0;endFill=0;fillColor=#d5e8d4;strokeColor=#82b366;" parent="1" source="DjwsQ6T4ATZzyBEK2xcY-1" target="DjwsQ6T4ATZzyBEK2xcY-1" edge="1">
          <mxGeometry width="50" height="50" relative="1" as="geometry">
            <mxPoint x="310" y="330" as="sourcePoint" />
            <mxPoint x="431" y="369" as="targetPoint" />
          </mxGeometry>
        </mxCell>
        <mxCell id="DjwsQ6T4ATZzyBEK2xcY-60" value="" style="endArrow=classic;dashed=1;html=1;rounded=0;exitX=0.008;exitY=0.865;exitDx=0;exitDy=0;exitPerimeter=0;entryX=1;entryY=0.5;entryDx=0;entryDy=0;endFill=0;fillColor=#e1d5e7;strokeColor=#9673a6;" parent="1" source="DjwsQ6T4ATZzyBEK2xcY-1" target="DjwsQ6T4ATZzyBEK2xcY-1" edge="1">
          <mxGeometry width="50" height="50" relative="1" as="geometry">
            <mxPoint x="311" y="371" as="sourcePoint" />
            <mxPoint x="430" y="329" as="targetPoint" />
          </mxGeometry>
        </mxCell>
        <mxCell id="DjwsQ6T4ATZzyBEK2xcY-61" value="" style="endArrow=classic;dashed=1;html=1;rounded=0;exitX=0;exitY=0.833;exitDx=0;exitDy=0;exitPerimeter=0;endFill=0;fillColor=#e1d5e7;strokeColor=#9673a6;" parent="1" source="DjwsQ6T4ATZzyBEK2xcY-1" edge="1">
          <mxGeometry width="50" height="50" relative="1" as="geometry">
            <mxPoint x="311" y="372" as="sourcePoint" />
            <mxPoint x="420" y="360" as="targetPoint" />
          </mxGeometry>
        </mxCell>
        <mxCell id="DjwsQ6T4ATZzyBEK2xcY-62" value="&lt;p&gt;&lt;span style=&quot;background-color: initial;&quot;&gt;Change in input 0:&lt;/span&gt;&lt;/p&gt;&lt;p&gt;&lt;span style=&quot;background-color: rgb(254, 232, 88);&quot;&gt;&lt;span style=&quot;&quot;&gt;&lt;span style=&quot;white-space: pre;&quot;&gt;&amp;nbsp;&amp;nbsp;&amp;nbsp;&amp;nbsp;&lt;/span&gt;&lt;/span&gt;output 1 = input 0&lt;/span&gt;&lt;/p&gt;&lt;p&gt;&lt;span style=&quot;background-color: rgb(254, 232, 88);&quot;&gt;&lt;span style=&quot;&quot;&gt;&lt;span style=&quot;white-space: pre;&quot;&gt;&amp;nbsp;&amp;nbsp;&amp;nbsp;&amp;nbsp;&lt;/span&gt;&lt;/span&gt;output 2 = input 0&lt;/span&gt;&lt;/p&gt;&lt;p&gt;&lt;span style=&quot;&quot;&gt;&lt;br&gt;&lt;/span&gt;&lt;/p&gt;&lt;p&gt;&lt;span style=&quot;&quot;&gt;Change in input 1:&lt;/span&gt;&lt;/p&gt;&lt;p&gt;&lt;span style=&quot;white-space: pre;&quot;&gt;&#x9;&lt;/span&gt;if control false:&lt;span style=&quot;&quot;&gt;&lt;span style=&quot;background-color: rgb(93, 255, 82);&quot;&gt;&lt;br&gt;&lt;/span&gt;&lt;/span&gt;&lt;/p&gt;&lt;p&gt;&lt;span style=&quot;background-color: rgb(213, 232, 212);&quot;&gt;&lt;span style=&quot;white-space: pre;&quot;&gt;&#x9;&lt;/span&gt;&lt;span style=&quot;white-space: pre;&quot;&gt;&#x9;&lt;/span&gt;output 0 = input 1&lt;/span&gt;&lt;br&gt;&lt;/p&gt;&lt;p&gt;&lt;span style=&quot;&quot;&gt;&lt;span style=&quot;&quot;&gt;&lt;span style=&quot;white-space: pre;&quot;&gt;&amp;nbsp;&amp;nbsp;&amp;nbsp;&amp;nbsp;&lt;span style=&quot;white-space: pre;&quot;&gt;&#x9;&lt;/span&gt;&lt;/span&gt;&lt;/span&gt;else control true:&lt;br&gt;&lt;/span&gt;&lt;/p&gt;&lt;p&gt;&lt;span style=&quot;background-color: rgb(245, 102, 255);&quot;&gt;&lt;span style=&quot;&quot;&gt;&lt;span style=&quot;white-space: pre;&quot;&gt;&amp;nbsp;&amp;nbsp;&amp;nbsp;&amp;nbsp;&lt;/span&gt;&lt;/span&gt;&lt;span style=&quot;&quot;&gt;&lt;span style=&quot;white-space: pre;&quot;&gt;&amp;nbsp;&amp;nbsp;&amp;nbsp;&amp;nbsp;&lt;span style=&quot;white-space: pre;&quot;&gt;&#x9;&lt;/span&gt;&lt;/span&gt;&lt;/span&gt;output 1 = input 1&lt;br&gt;&lt;/span&gt;&lt;/p&gt;&lt;p&gt;&lt;span style=&quot;background-color: rgb(245, 102, 255);&quot;&gt;&lt;span style=&quot;&quot;&gt;&lt;span style=&quot;white-space: pre;&quot;&gt;&amp;nbsp;&amp;nbsp;&amp;nbsp;&amp;nbsp;&lt;/span&gt;&lt;/span&gt;&lt;span style=&quot;&quot;&gt;&lt;span style=&quot;white-space: pre;&quot;&gt;&amp;nbsp;&amp;nbsp;&amp;nbsp;&amp;nbsp;&lt;span style=&quot;white-space: pre;&quot;&gt;&#x9;&lt;/span&gt;&lt;/span&gt;&lt;/span&gt;output 2 = input 1&lt;/span&gt;&lt;br&gt;&lt;/p&gt;" style="shape=note;whiteSpace=wrap;html=1;backgroundOutline=1;darkOpacity=0.05;align=left;verticalAlign=top;fontFamily=Comic Sans MS;" parent="1" vertex="1">
          <mxGeometry x="597" y="220" width="230" height="350" as="geometry" />
        </mxCell>
        <mxCell id="y9c4D-zy5b7rO7ox62vo-1" value="Reg" style="rounded=1;whiteSpace=wrap;html=1;fillColor=#ffe6cc;strokeColor=#d79b00;" parent="1" vertex="1">
          <mxGeometry x="294" y="660" width="120" height="60" as="geometry" />
        </mxCell>
        <mxCell id="y9c4D-zy5b7rO7ox62vo-2" value="" style="edgeStyle=none;orthogonalLoop=1;jettySize=auto;html=1;rounded=0;entryX=0.5;entryY=0;entryDx=0;entryDy=0;" parent="1" edge="1">
          <mxGeometry width="100" relative="1" as="geometry">
            <mxPoint x="373.5" y="610" as="sourcePoint" />
            <mxPoint x="373.5" y="660" as="targetPoint" />
            <Array as="points" />
          </mxGeometry>
        </mxCell>
        <mxCell id="y9c4D-zy5b7rO7ox62vo-3" value="" style="edgeStyle=none;orthogonalLoop=1;jettySize=auto;html=1;rounded=0;" parent="1" edge="1">
          <mxGeometry width="100" relative="1" as="geometry">
            <mxPoint x="234" y="689.5" as="sourcePoint" />
            <mxPoint x="294" y="689.5" as="targetPoint" />
            <Array as="points" />
          </mxGeometry>
        </mxCell>
        <mxCell id="y9c4D-zy5b7rO7ox62vo-4" value="" style="edgeStyle=none;orthogonalLoop=1;jettySize=auto;html=1;rounded=0;" parent="1" edge="1">
          <mxGeometry width="100" relative="1" as="geometry">
            <mxPoint x="414" y="689.5" as="sourcePoint" />
            <mxPoint x="474" y="689.5" as="targetPoint" />
            <Array as="points" />
          </mxGeometry>
        </mxCell>
        <mxCell id="y9c4D-zy5b7rO7ox62vo-6" value="clk poseEdge" style="text;html=1;align=center;verticalAlign=middle;resizable=0;points=[];autosize=1;strokeColor=none;fillColor=none;" parent="1" vertex="1">
          <mxGeometry x="370" y="618" width="100" height="30" as="geometry" />
        </mxCell>
        <mxCell id="y9c4D-zy5b7rO7ox62vo-7" value="Any" style="text;html=1;align=center;verticalAlign=middle;resizable=0;points=[];autosize=1;strokeColor=none;fillColor=none;" parent="1" vertex="1">
          <mxGeometry x="230" y="658" width="40" height="30" as="geometry" />
        </mxCell>
        <mxCell id="y9c4D-zy5b7rO7ox62vo-8" value="Any" style="text;html=1;align=center;verticalAlign=middle;resizable=0;points=[];autosize=1;strokeColor=none;fillColor=none;" parent="1" vertex="1">
          <mxGeometry x="450" y="658" width="40" height="30" as="geometry" />
        </mxCell>
        <mxCell id="buN1Cu8FsJj_hYBcr996-1" value="" style="edgeStyle=none;orthogonalLoop=1;jettySize=auto;html=1;rounded=0;entryX=0.5;entryY=0;entryDx=0;entryDy=0;" edge="1" parent="1">
          <mxGeometry width="100" relative="1" as="geometry">
            <mxPoint x="333.5" y="610" as="sourcePoint" />
            <mxPoint x="333.5" y="660" as="targetPoint" />
            <Array as="points" />
          </mxGeometry>
        </mxCell>
        <mxCell id="buN1Cu8FsJj_hYBcr996-2" value="load" style="text;html=1;align=center;verticalAlign=middle;resizable=0;points=[];autosize=1;strokeColor=none;fillColor=none;" vertex="1" parent="1">
          <mxGeometry x="285" y="618" width="50" height="30" as="geometry" />
        </mxCell>
        <mxCell id="buN1Cu8FsJj_hYBcr996-4" value="Memory" style="rounded=1;whiteSpace=wrap;html=1;fillColor=#ffe6cc;strokeColor=#d79b00;" vertex="1" parent="1">
          <mxGeometry x="294" y="820" width="120" height="120" as="geometry" />
        </mxCell>
        <mxCell id="buN1Cu8FsJj_hYBcr996-5" value="" style="edgeStyle=none;orthogonalLoop=1;jettySize=auto;html=1;rounded=0;entryX=0.5;entryY=0;entryDx=0;entryDy=0;" edge="1" parent="1">
          <mxGeometry width="100" relative="1" as="geometry">
            <mxPoint x="373.5" y="770" as="sourcePoint" />
            <mxPoint x="373.5" y="820" as="targetPoint" />
            <Array as="points" />
          </mxGeometry>
        </mxCell>
        <mxCell id="buN1Cu8FsJj_hYBcr996-6" value="" style="edgeStyle=none;orthogonalLoop=1;jettySize=auto;html=1;rounded=0;" edge="1" parent="1">
          <mxGeometry width="100" relative="1" as="geometry">
            <mxPoint x="234" y="849.5" as="sourcePoint" />
            <mxPoint x="294" y="849.5" as="targetPoint" />
            <Array as="points" />
          </mxGeometry>
        </mxCell>
        <mxCell id="buN1Cu8FsJj_hYBcr996-7" value="" style="edgeStyle=none;orthogonalLoop=1;jettySize=auto;html=1;rounded=0;" edge="1" parent="1">
          <mxGeometry width="100" relative="1" as="geometry">
            <mxPoint x="414" y="849.5" as="sourcePoint" />
            <mxPoint x="474" y="849.5" as="targetPoint" />
            <Array as="points" />
          </mxGeometry>
        </mxCell>
        <mxCell id="buN1Cu8FsJj_hYBcr996-8" value="clk poseEdge" style="text;html=1;align=center;verticalAlign=middle;resizable=0;points=[];autosize=1;strokeColor=none;fillColor=none;" vertex="1" parent="1">
          <mxGeometry x="370" y="778" width="100" height="30" as="geometry" />
        </mxCell>
        <mxCell id="buN1Cu8FsJj_hYBcr996-9" value="write data" style="text;html=1;align=center;verticalAlign=middle;resizable=0;points=[];autosize=1;strokeColor=none;fillColor=none;" vertex="1" parent="1">
          <mxGeometry x="210" y="825" width="80" height="30" as="geometry" />
        </mxCell>
        <mxCell id="buN1Cu8FsJj_hYBcr996-10" value="Any" style="text;html=1;align=center;verticalAlign=middle;resizable=0;points=[];autosize=1;strokeColor=none;fillColor=none;" vertex="1" parent="1">
          <mxGeometry x="450" y="818" width="40" height="30" as="geometry" />
        </mxCell>
        <mxCell id="buN1Cu8FsJj_hYBcr996-11" value="" style="edgeStyle=none;orthogonalLoop=1;jettySize=auto;html=1;rounded=0;entryX=0.5;entryY=0;entryDx=0;entryDy=0;" edge="1" parent="1">
          <mxGeometry width="100" relative="1" as="geometry">
            <mxPoint x="333.5" y="770" as="sourcePoint" />
            <mxPoint x="333.5" y="820" as="targetPoint" />
            <Array as="points" />
          </mxGeometry>
        </mxCell>
        <mxCell id="buN1Cu8FsJj_hYBcr996-12" value="load" style="text;html=1;align=center;verticalAlign=middle;resizable=0;points=[];autosize=1;strokeColor=none;fillColor=none;" vertex="1" parent="1">
          <mxGeometry x="285" y="778" width="50" height="30" as="geometry" />
        </mxCell>
        <mxCell id="buN1Cu8FsJj_hYBcr996-13" value="" style="edgeStyle=none;orthogonalLoop=1;jettySize=auto;html=1;rounded=0;" edge="1" parent="1">
          <mxGeometry width="100" relative="1" as="geometry">
            <mxPoint x="234" y="879.5" as="sourcePoint" />
            <mxPoint x="294" y="879.5" as="targetPoint" />
            <Array as="points" />
          </mxGeometry>
        </mxCell>
        <mxCell id="buN1Cu8FsJj_hYBcr996-14" value="read addr" style="text;html=1;align=center;verticalAlign=middle;resizable=0;points=[];autosize=1;strokeColor=none;fillColor=none;" vertex="1" parent="1">
          <mxGeometry x="215" y="855" width="70" height="30" as="geometry" />
        </mxCell>
        <mxCell id="buN1Cu8FsJj_hYBcr996-15" value="" style="edgeStyle=none;orthogonalLoop=1;jettySize=auto;html=1;rounded=0;" edge="1" parent="1">
          <mxGeometry width="100" relative="1" as="geometry">
            <mxPoint x="234" y="909.5" as="sourcePoint" />
            <mxPoint x="294" y="909.5" as="targetPoint" />
            <Array as="points" />
          </mxGeometry>
        </mxCell>
        <mxCell id="buN1Cu8FsJj_hYBcr996-16" value="write&lt;span style=&quot;background-color: initial;&quot;&gt;&amp;nbsp;addr&lt;/span&gt;" style="text;html=1;align=center;verticalAlign=middle;resizable=0;points=[];autosize=1;strokeColor=none;fillColor=none;" vertex="1" parent="1">
          <mxGeometry x="210" y="885" width="80" height="30" as="geometry" />
        </mxCell>
      </root>
    </mxGraphModel>
  </diagram>
</mxfile>
